<svg id="Bayer" xmlns="http://www.w3.org/2000/svg" xmlns:xlink="http://www.w3.org/1999/xlink" width="144" height="144" viewBox="0 0 144 144">
  <defs>
    <clipPath id="clip-path">
      <rect id="Rectángulo_520" data-name="Rectángulo 520" width="144" height="144" transform="translate(0 0)" fill="#adafe5"/>
    </clipPath>
  </defs>
  <g id="Grupo_44701" data-name="Grupo 44701" clip-path="url(#clip-path)">
    <path id="Trazado_61102" data-name="Trazado 61102" d="M171.8,57.225V37.279c.274-.013.5-.033.733-.033q6.429,0,12.858,0a5.943,5.943,0,0,1,5.958,4.88,3.862,3.862,0,0,1-.129,2.03,12.665,12.665,0,0,1-.54,1.386c-.2.424-.466.817-.72,1.252.175.218.354.434.527.655a6.027,6.027,0,0,1-3.549,9.708,6.379,6.379,0,0,1-1.27.106q-6.606.012-13.213,0c-.207,0-.414-.025-.656-.041m4.573-4.361c.22.018.36.039.5.039q3.978,0,7.957,0a3.6,3.6,0,0,0,.5-.032,1.781,1.781,0,0,0,1.554-1.681,1.846,1.846,0,0,0-1.237-2.008,3.338,3.338,0,0,0-.913-.1q-3.872-.011-7.744,0c-.2,0-.4.036-.613.056Zm.007-8.036a1.761,1.761,0,0,0,.3.058c2.7,0,5.4.015,8.1-.011a1.98,1.98,0,0,0,.987-.328,1.705,1.705,0,0,0-.982-3.1c-2.675-.012-5.351-.006-8.026,0a1.784,1.784,0,0,0-.378.08Z" transform="translate(-108.628 -23.549)" fill="#adafe5"/>
    <path id="Trazado_61103" data-name="Trazado 61103" d="M38.67,168.743c.239-.018.446-.046.652-.047,4.287,0,8.575-.014,12.862,0a6.014,6.014,0,0,1,5.7,3.735,4.992,4.992,0,0,1-.189,4.252c-.254.531-.561,1.035-.862,1.583.177.221.377.454.559.7a5.866,5.866,0,0,1,.792,6.1,5.729,5.729,0,0,1-4.952,3.627,10.064,10.064,0,0,1-1.134.062q-6.289.006-12.578,0c-.277,0-.553-.021-.852-.033Zm4.565,15.61c.233.019.373.041.513.041q3.936,0,7.872,0a3.24,3.24,0,0,0,.7-.082,1.722,1.722,0,0,0,1.4-1.793,1.774,1.774,0,0,0-1.346-1.915,3.285,3.285,0,0,0-.774-.062q-3.865-.006-7.731,0c-.2,0-.407.031-.637.05Zm0-8.043c.248.015.411.034.574.034q3.792,0,7.585,0a3.71,3.71,0,0,0,.5-.021,1.733,1.733,0,0,0-.4-3.439c-2.6-.011-5.2-.005-7.8,0a4.286,4.286,0,0,0-.454.051Z" transform="translate(-24.451 -106.664)" fill="#adafe5"/>
    <path id="Trazado_61104" data-name="Trazado 61104" d="M242.55,180.763v3.772h13.321c.026,1.455.007,2.837.01,4.27h-18c-.161-.514-.2-19.145-.03-19.962h17.979v4.232h-13.3c-.009.6-.02,1.137-.024,1.67s0,1.085,0,1.711a17.371,17.371,0,0,0,2.141.049c.71.01,1.421,0,2.132,0h8.569a17.472,17.472,0,0,1,.036,4.255Z" transform="translate(-150.326 -106.76)" fill="#adafe5"/>
    <path id="Trazado_61105" data-name="Trazado 61105" d="M189.5,242.873v4.322H176.561a15.844,15.844,0,0,0-.042,1.869c-.009.589,0,1.178,0,1.868,1.145.051,2.248.018,3.348.024s2.227,0,3.34,0h6.633v4.156c-.549.17-17.322.2-18.042.022V235.245h18.036V239.5h-13.26v3.377Z" transform="translate(-108.627 -148.746)" fill="#adafe5"/>
    <path id="Trazado_61106" data-name="Trazado 61106" d="M185.134,315.052l5.852,7.75c-.328.026-.531.055-.732.056-1.445,0-2.89-.013-4.335.012a1.038,1.038,0,0,1-.942-.478c-1.652-2.223-3.329-4.429-4.976-6.657a1.122,1.122,0,0,0-1.052-.536c-.966.039-1.935.011-2.986.011v7.607c-1.609.086-3.136.035-4.647.033-.168-.553-.2-19.189-.043-20.009.192-.014.4-.043.606-.043,3.767,0,7.534-.017,11.3,0a6.247,6.247,0,0,1,2.752,11.888c-.234.11-.47.215-.8.363m-8.988-4.322c.116.053.158.088.2.089,2.27.007,4.54.036,6.809,0a1.781,1.781,0,0,0,1.638-1.176,1.96,1.96,0,0,0-1.862-2.658c-2.128-.026-4.256-.008-6.385,0a1.918,1.918,0,0,0-.4.089Z" transform="translate(-108.231 -191.455)" fill="#adafe5"/>
    <path id="Trazado_61107" data-name="Trazado 61107" d="M309.107,181.148v7.46a22.123,22.123,0,0,1-4.629.081c-.151-.507-.186-19.144-.028-19.956.194-.013.4-.039.61-.039,3.766,0,7.533-.018,11.3,0a6.1,6.1,0,0,1,6.1,4.677,6.173,6.173,0,0,1-3.5,7.276c-.193.086-.387.17-.666.291l5.838,7.734a4.471,4.471,0,0,1-.547.078c-1.516,0-3.032-.01-4.548.012a.973.973,0,0,1-.882-.457c-1.651-2.224-3.33-4.428-4.975-6.657a1.172,1.172,0,0,0-1.119-.553c-.732.04-1.468.007-2.2.012-.23,0-.46.022-.752.038m.239-4.532c.066.052.085.079.1.079,2.318.011,4.636.053,6.953.01a1.716,1.716,0,0,0,1.607-1.309,1.792,1.792,0,0,0-.586-1.988,2.027,2.027,0,0,0-1.426-.532c-2.06.008-4.12,0-6.18.007a3.323,3.323,0,0,0-.471.066Z" transform="translate(-192.439 -106.66)" fill="#adafe5"/>
    <path id="Trazado_61108" data-name="Trazado 61108" d="M125.667,188.742c-1.681,0-3.218-.007-4.755.005-.341,0-.44-.22-.547-.46-.366-.821-.75-1.635-1.084-2.469a.778.778,0,0,0-.854-.548q-5.044.024-10.089,0a.778.778,0,0,0-.851.553c-.333.834-.726,1.644-1.085,2.469-.109.251-.214.458-.547.456-1.537-.01-3.075,0-4.746,0,.124-.283.2-.487.3-.683q3.291-6.648,6.584-13.293c.893-1.8,1.808-3.594,2.667-5.412a1.042,1.042,0,0,1,1.143-.687c1.041.045,2.085.037,3.126,0a.869.869,0,0,1,.93.565q3.335,6.666,6.707,13.313,1.376,2.725,2.756,5.447c.1.2.192.417.343.75m-8.93-7.654-1.166-2.469c-.374-.791-.741-1.586-1.126-2.371-.374-.763-.684-1.563-1.185-2.387l-3.418,7.227Z" transform="translate(-63.932 -106.647)" fill="#adafe5"/>
    <path id="Trazado_61109" data-name="Trazado 61109" d="M187.557,122.134a3.568,3.568,0,0,1-.418.057c-1.374,0-2.748-.011-4.122.01a.686.686,0,0,1-.745-.492c-.342-.831-.735-1.641-1.08-2.471a.7.7,0,0,0-.749-.49q-5.116.02-10.231,0a.736.736,0,0,0-.786.543c-.321.789-.7,1.553-1.021,2.342a.778.778,0,0,1-.842.572c-1.3-.027-2.605-.008-3.908-.011-.162,0-.325-.026-.582-.049.116-.258.2-.468.3-.672q4.208-8.492,8.419-16.983c.284-.573.581-1.139.836-1.725a.878.878,0,0,1,.963-.622c1.088.048,2.18.044,3.268,0a.907.907,0,0,1,.963.618q3.594,7.172,7.225,14.326,1.1,2.186,2.2,4.374c.1.205.191.418.306.671m-8.975-7.57a56.822,56.822,0,0,0-3.441-7.107l-3.364,7.107Z" transform="translate(-103.111 -64.584)" fill="#adafe5"/>
    <path id="Trazado_61110" data-name="Trazado 61110" d="M177.367,188.711h-4.691c-.016-.283-.042-.534-.043-.784,0-1.87-.013-3.741.006-5.611a1.743,1.743,0,0,0-.408-1.164q-4.491-5.728-8.959-11.475c-.217-.278-.429-.56-.7-.92a6.021,6.021,0,0,1,.609-.071c1.469,0,2.937.015,4.4-.014a1.093,1.093,0,0,1,1,.509c1.948,2.622,3.915,5.23,5.876,7.842.183.244.37.486.618.811.179-.217.328-.382.459-.56,1.971-2.693,3.948-5.382,5.9-8.089a1.067,1.067,0,0,1,.995-.511c1.444.026,2.889.008,4.334.011.183,0,.366.022.684.042-.206.279-.347.481-.5.674-2.984,3.827-5.961,7.66-8.964,11.472a2.608,2.608,0,0,0-.634,1.8c.049,1.727.016,3.456.016,5.184v.855" transform="translate(-102.792 -106.652)" fill="#adafe5"/>
    <path id="Trazado_61111" data-name="Trazado 61111" d="M72.068,8.457a63.611,63.611,0,0,1,44.98,108.591,63.611,63.611,0,1,1-89.959-89.96A63.2,63.2,0,0,1,72.068,8.457m0-8.457a72.068,72.068,0,1,0,72.068,72.068A72.068,72.068,0,0,0,72.068,0" fill="#adafe5"/>
  </g>
</svg>
