<svg id="Clucht" xmlns="http://www.w3.org/2000/svg" xmlns:xlink="http://www.w3.org/1999/xlink" width="69.104" height="19.622" viewBox="0 0 69.104 19.622">
  <defs>
    <clipPath id="clip-path">
      <rect id="Rect치ngulo_570" data-name="Rect치ngulo 570" width="69.104" height="19.622" fill="#8874d4"/>
    </clipPath>
  </defs>
  <g id="Grupo_44752" data-name="Grupo 44752" clip-path="url(#clip-path)">
    <path id="Trazado_61225" data-name="Trazado 61225" d="M14.15,14.145C10.65,17,7.2,17.169,4.825,14.7a7.178,7.178,0,0,1-.143-9.29c2.376-2.637,5.624-2.535,9.285.22l2.191-1.912A9.287,9.287,0,0,0,5.443,1.18C1.683,2.823-.394,6.735.062,11.311a9.105,9.105,0,0,0,7.01,8c3.433.779,7.428-.632,9.015-3.227l-1.938-1.94M69.072,19.5c0-3.134.087-6.109-.025-9.076A4.629,4.629,0,0,0,63.7,5.962a18.92,18.92,0,0,0-2.428.694V0H58.217V19.493h3.09c0-1.31-.016-2.56,0-3.81a45.238,45.238,0,0,1,.153-4.586,2.508,2.508,0,0,1,2.86-2.108c1.464.157,1.579,1.262,1.648,2.381.025.4.007.811.008,1.217,0,2.285,0,4.57,0,6.908ZM23.488,6.235c0,2.814-.134,5.476.033,8.119.219,3.455,2.547,5.418,5.848,5.115A18.434,18.434,0,0,0,32,18.843c.413.817,1.582,1.015,3.261.48V6.248h-3.14c0,2.332.012,4.575,0,6.817-.016,2.189-1.151,3.4-3.149,3.392-1.6,0-2.264-.963-2.27-3.291-.005-2.285,0-4.57,0-6.931ZM54.362,15.13c-2.184,1.654-4.308,1.713-5.761.257a3.964,3.964,0,0,1-.349-4.976c1.288-1.712,3.378-1.787,6.207-.2l2-1.955a7.029,7.029,0,0,0-10.1-.375,7,7,0,0,0,.461,10.031c2.831,2.405,7.436,2.047,9.5-.659L54.362,15.13M36.182,6.2V9.333l2.232.105V19.473H41.65V9.447l2.283-.137V6.231l-2.324-.155V1.558H38.4V6.105l-2.218.1M21.11,0H18.068V19.465H21.11Z" transform="translate(0 0)" fill="#8874d4"/>
    <path id="Trazado_61226" data-name="Trazado 61226" d="M14.149,15.266l1.938,1.94C14.5,19.8,10.5,21.212,7.072,20.433a9.105,9.105,0,0,1-7.01-8C-.395,7.857,1.683,3.945,5.443,2.3A9.287,9.287,0,0,1,16.159,4.84L13.967,6.752C10.305,4,7.058,3.9,4.682,6.532a7.178,7.178,0,0,0,.143,9.29c2.378,2.468,5.826,2.3,9.325-.557" transform="translate(0 -1.121)" fill="#8874d4"/>
    <path id="Trazado_61227" data-name="Trazado 61227" d="M224.492,19.509H221.4c0-2.339,0-4.624,0-6.909,0-.405.017-.812-.007-1.216-.069-1.119-.184-2.224-1.648-2.381a2.509,2.509,0,0,0-2.86,2.108,45.311,45.311,0,0,0-.153,4.586c-.02,1.25,0,2.5,0,3.81h-3.09V.018h3.057V6.67a18.874,18.874,0,0,1,2.428-.694,4.629,4.629,0,0,1,5.345,4.458c.112,2.967.025,5.941.025,9.076" transform="translate(-155.42 -0.013)" fill="#8874d4"/>
    <path id="Trazado_61228" data-name="Trazado 61228" d="M86.058,22.88h3.206c0,2.361,0,4.646,0,6.931.005,2.327.671,3.286,2.27,3.29,2,.006,3.133-1.2,3.149-3.391.016-2.243,0-4.485,0-6.817h3.14V35.968c-1.679.535-2.848.337-3.261-.48a18.432,18.432,0,0,1-2.627.626c-3.3.3-5.629-1.661-5.848-5.115-.167-2.643-.033-5.3-.033-8.119" transform="translate(-62.57 -16.645)" fill="#8874d4"/>
    <path id="Trazado_61229" data-name="Trazado 61229" d="M173.069,30.934l1.959,2.123c-2.061,2.706-6.667,3.064-9.5.659a6.845,6.845,0,1,1,9.638-9.657l-2,1.955c-2.828-1.587-4.919-1.511-6.207.2a3.965,3.965,0,0,0,.349,4.976c1.453,1.457,3.577,1.4,5.761-.257" transform="translate(-118.706 -15.804)" fill="#8874d4"/>
    <path id="Trazado_61230" data-name="Trazado 61230" d="M132.775,10.363l2.218-.1V5.719H138.2v4.517l2.324.155V13.47l-2.283.137V23.633h-3.236V13.6l-2.232-.105Z" transform="translate(-96.593 -4.161)" fill="#8874d4"/>
    <rect id="Rect치ngulo_569" data-name="Rect치ngulo 569" width="3.042" height="19.465" transform="translate(18.068)" fill="#8874d4"/>
    <path id="Trazado_61231" data-name="Trazado 61231" d="M183.6,40.935a2.347,2.347,0,1,1-2.347-2.347,2.347,2.347,0,0,1,2.347,2.347" transform="translate(-130.157 -28.073)" fill="#f4f2fb"/>
  </g>
</svg>
