<svg id="Grupo_11672" data-name="Grupo 11672" xmlns="http://www.w3.org/2000/svg" width="46.963" height="37.108" viewBox="0 0 46.963 37.108">
  <path id="Trazado_1" data-name="Trazado 1" d="M554.489,68.936V60.969h-6.569V75.3A15.362,15.362,0,0,1,554.489,68.936Z" transform="translate(-547.761 -60.969)" fill="#fff"/>
  <path id="Trazado_4" data-name="Trazado 4" d="M595.312,152.748c0-.077-.019-.153-.019-.211,0-.077-.019-.153-.019-.211l-.057-.4c-.019-.077-.019-.153-.038-.23-.019-.115-.038-.249-.058-.364-.038-.192-.077-.383-.134-.575-.115-.46-.268-.919-.421-1.36a.682.682,0,0,0-.077-.172c-.058-.134-.1-.268-.153-.383-.019-.057-.057-.115-.077-.172-.077-.192-.172-.364-.268-.555-.057-.1-.1-.192-.153-.287-.038-.077-.1-.172-.134-.249s-.1-.153-.134-.249c-.077-.134-.172-.268-.249-.421-.019-.038-.038-.057-.057-.1-.134-.211-.268-.4-.421-.613-.019-.019-.019-.038-.038-.057-.077-.1-.134-.172-.211-.268-.038-.057-.1-.115-.134-.172-.077-.1-.153-.172-.23-.268-.038-.058-.1-.1-.134-.153-.268-.287-.536-.575-.823-.843a5.458,5.458,0,0,0-.5-.441c-.038-.019-.057-.057-.1-.077-.115-.1-.211-.172-.326-.268a.262.262,0,0,0-.077-.057c-.115-.1-.249-.191-.383-.287-.019,0-.019-.019-.038-.019-.192-.134-.4-.287-.594-.4l-.019-.019c-.345-.211-.69-.421-1.053-.613h-.019c-.153-.077-.326-.172-.479-.23-.211-.1-.421-.191-.632-.268a.067.067,0,0,1-.038-.019,5.4,5.4,0,0,0-.594-.211c-.019-.019-.057-.019-.077-.038-.191-.057-.364-.115-.555-.172a1.2,1.2,0,0,0-.134-.038,4.372,4.372,0,0,0-.536-.134c-.058-.019-.115-.019-.153-.038a4.912,4.912,0,0,0-.517-.1c-.057-.019-.134-.019-.191-.038-.172-.019-.326-.057-.5-.077-.077,0-.134-.019-.211-.019a4.688,4.688,0,0,0-.517-.038c-.057,0-.134-.019-.191-.019-.23-.019-.479-.019-.709-.019-.211,0-.421,0-.632.019-.077,0-.153.019-.23.019-.134,0-.268.019-.4.019a1.482,1.482,0,0,0-.287.038c-.115.019-.23.019-.326.038s-.211.038-.306.057l-.287.057a1.617,1.617,0,0,0-.326.077c-.077.019-.172.038-.249.057a2.323,2.323,0,0,0-.345.1l-.23.057c-.115.038-.249.077-.364.115-.057.019-.134.038-.191.057-.134.038-.249.1-.383.134l-.172.058c-.134.057-.268.1-.4.153-.038.019-.1.038-.134.057a3.814,3.814,0,0,0-.4.191l-.115.057c-.134.077-.287.134-.421.211a.145.145,0,0,1-.077.038c-.153.077-.287.153-.44.249-.019.019-.038.019-.058.038-.153.1-.307.191-.441.287L574.9,143a12.807,12.807,0,0,0-1.7,1.341,15.237,15.237,0,0,1,2.949,5.593,7.466,7.466,0,0,1,1.149-1.3l.019.019a7.2,7.2,0,0,1,3.16-1.666c.076-.019.172-.038.249-.057.019,0,.057-.019.077-.019h.038c.115-.019.249-.038.383-.057h.038a.174.174,0,0,0,.1-.019,1.543,1.543,0,0,1,.306-.019h.134c.134,0,.287-.019.421-.019h.383a7.273,7.273,0,0,1-.383,14.537,6.023,6.023,0,0,1-.843-.057.572.572,0,0,1-.153-.077,7.281,7.281,0,0,1-6.186-6.7c0-.1-.077-.421-.077-.44v-.019c0-.46-.1-1.628-.1-1.628a13.232,13.232,0,0,0-26.373,1.551v.077a13.228,13.228,0,0,0,22.217,9.71l-.134-.172a30.249,30.249,0,0,1-2.854-5.5,7.184,7.184,0,1,1,1.283-4.06v.23c.019.536.1,1.379.1,1.379a13.163,13.163,0,0,0,2.873,6.8l.019-.019a12.543,12.543,0,0,0,1.187,1.283c.019.019.019.019.038.019a13.814,13.814,0,0,0,1.3,1.073h.019c.153.115.326.23.479.326h.019c.019,0,.019.019.038.019.153.1.306.192.479.287a.019.019,0,0,1,.019.019c.019.019.038.019.057.038.153.1.307.172.46.249a.019.019,0,0,1,.019.019c.038.019.057.038.1.038a4.652,4.652,0,0,0,.441.211.019.019,0,0,1,.019.019l.115.057c.134.058.287.134.421.191a.019.019,0,0,1,.019.019c.057.019.1.038.153.057a3.444,3.444,0,0,0,.4.153h.019l.172.057c.134.038.268.1.4.134h.019c.077.019.134.038.211.057a2.238,2.238,0,0,0,.383.1h.019c.076.019.172.038.249.058.115.019.23.057.345.077h.019l.287.057c.115.019.23.038.326.057h.019a2.106,2.106,0,0,0,.345.038c.1.019.191.019.287.038h.019c.134.019.268.019.4.038.077,0,.172.019.249.019.211.019.441.019.67.019a13.238,13.238,0,0,0,13.235-13.235C595.37,153.571,595.351,153.15,595.312,152.748Z" transform="translate(-548.484 -130.158)" fill="#fff"/>
</svg>
