<svg id="Grupo_11671" data-name="Grupo 11671" xmlns="http://www.w3.org/2000/svg" width="26.967" height="34.59" viewBox="0 0 26.967 34.59">
  <path id="Trazado_60852" data-name="Trazado 60852" d="M69.221,95.559h6.569V60.969H69.221Z" transform="translate(-69.221 -60.969)" fill="#fff"/>
  <path id="Trazado_60853" data-name="Trazado 60853" d="M169,71.407a13.172,13.172,0,0,0,3.888-9.347,10.422,10.422,0,0,0-.057-1.092h-5.995a7,7,0,0,1,.1,1.092,7.256,7.256,0,0,1-5.5,7.048H156.7v5.957h4.846a7.275,7.275,0,0,1,7.278,7.278V95.559h5.957V82.343A13.254,13.254,0,0,0,169,71.407Z" transform="translate(-147.816 -60.969)" fill="#fff"/>
</svg>
