<svg id="Herbalife" xmlns="http://www.w3.org/2000/svg" xmlns:xlink="http://www.w3.org/1999/xlink" width="176" height="144.014" viewBox="0 0 176 144.014">
  <defs>
    <clipPath id="clip-path">
      <rect id="Rect치ngulo_516" data-name="Rect치ngulo 516" width="176" height="144.014" fill="#adafe5"/>
    </clipPath>
  </defs>
  <g id="Grupo_44694" data-name="Grupo 44694" style="mix-blend-mode: normal;isolation: isolate">
    <g id="Grupo_44693" data-name="Grupo 44693" clip-path="url(#clip-path)">
      <path id="Trazado_61079" data-name="Trazado 61079" d="M147.313,287.036v-21.7c3.329,0,6.63-.2,9.893.068a4.333,4.333,0,0,1,4.083,3.765,5.227,5.227,0,0,1-2.929,5.224c-.344.183-.692.359-1.347.7.815.245,1.35.375,1.862.565,1.944.723,3.415,1.956,3.732,4.1a5.31,5.31,0,0,1-2.3,5.45,6.673,6.673,0,0,1-2.931,1.321c-3.316.3-6.654.356-10.061.51m4.318-2.769c2.26-.019,4.563.517,5.983-1.778a3.381,3.381,0,0,0-.1-3.97c-1.5-2.011-3.719-1.609-5.88-1.557Zm.026-10.131c2.148.18,3.994-.065,5.12-1.978a2.733,2.733,0,0,0-.036-3.2c-1.333-1.716-3.243-1.132-5.084-1.221Z" transform="translate(-79.426 -143.022)" fill="#adafe5"/>
      <path id="Trazado_61080" data-name="Trazado 61080" d="M4.032,276.339V286.8H0V265.189H4.049v8.31h9.439v-8.287h4.1v21.555H13.542V276.339Z" transform="translate(0 -142.981)" fill="#adafe5"/>
      <path id="Trazado_61081" data-name="Trazado 61081" d="M99.558,265.263c3.239,0,6.37-.182,9.466.061a4.912,4.912,0,0,1,4.674,3.756,6.312,6.312,0,0,1-2.173,6.967c-1.178.9-1.17,1.555-.471,2.718,1.549,2.581,2.954,5.248,4.534,8.09-1.585,0-2.93.054-4.264-.039-.322-.022-.72-.471-.9-.819-1.006-1.972-1.956-3.973-2.924-5.965-1.062-2.184-1.062-2.184-3.788-1.871V286.8H99.558Zm4.324,9.921c2.1.157,4.022.171,5.155-1.814a3.61,3.61,0,0,0-.02-4.1c-1.3-1.785-3.248-1.329-5.135-1.3Z" transform="translate(-53.678 -142.985)" fill="#adafe5"/>
      <path id="Trazado_61082" data-name="Trazado 61082" d="M209.629,286.655H205.07c-.56-1.592-1.177-3.226-1.7-4.89a1.25,1.25,0,0,0-1.427-1.061c-1.947.064-3.9.074-5.845,0a1.382,1.382,0,0,0-1.552,1.13c-.405,1.2-.935,2.36-1.283,3.575a1.563,1.563,0,0,1-1.959,1.318,16.89,16.89,0,0,0-2.078-.015c1.007-2.506,1.954-4.884,2.918-7.255,1.785-4.395,3.67-8.751,5.323-13.195.63-1.693,1.815-1.169,2.937-1.323s1.351.531,1.653,1.344q3.618,9.719,7.282,19.421c.107.286.18.584.293.953m-10.313-17.322-2.946,8.724h5.813l-2.866-8.724" transform="translate(-102.023 -142.833)" fill="#adafe5"/>
      <path id="Trazado_61083" data-name="Trazado 61083" d="M56.469,265.142H67.916v2.593H60.741v6.312h6.993v2.7H60.715v7.378h8.566v2.622H56.469Z" transform="translate(-30.446 -142.955)" fill="#adafe5"/>
      <path id="Trazado_61084" data-name="Trazado 61084" d="M358.395,274.1h7.121v2.691h-7.125v7.422H367v2.545H354.245V265.218h11.393v2.572h-7.243Z" transform="translate(-190.997 -142.997)" fill="#adafe5"/>
      <path id="Trazado_61085" data-name="Trazado 61085" d="M326.257,265.221v2.59H319.07v7.467h7.142v2.732c-1.741,0-3.483-.011-5.224,0-2.23.018-2.007-.294-2.016,2.044-.008,2.213,0,4.425,0,6.726h-4.051V265.221Z" transform="translate(-169.794 -142.998)" fill="#adafe5"/>
      <path id="Trazado_61086" data-name="Trazado 61086" d="M250.437,284.152h8.627v2.6H246.332V265.175h4.105Z" transform="translate(-132.814 -142.973)" fill="#adafe5"/>
      <rect id="Rect치ngulo_515" data-name="Rect치ngulo 515" width="4.035" height="21.566" transform="translate(132.628 122.239)" fill="#adafe5"/>
      <path id="Trazado_61087" data-name="Trazado 61087" d="M181.7,54.521c0,29.9-24.544,54.488-54.348,54.434a54.461,54.461,0,0,1-54.64-54.919C72.716,24.35,97.308,0,127.281,0A54.6,54.6,0,0,1,181.7,54.521m-3.243-.106a51.318,51.318,0,0,0-51.235-51.2c-28.038-.11-51.247,22.917-51.251,50.849,0,28.7,22.716,51.645,51.112,51.624a51.241,51.241,0,0,0,51.374-51.277" transform="translate(-39.202 0)" fill="#adafe5"/>
      <path id="Trazado_61088" data-name="Trazado 61088" d="M175.137,108.5c-10.1-16.072-14.019-33.533-13.183-52.112.7-15.469,4.506-30.074,13.173-43.272,15.847,23.724,18.789,66.652.009,95.384" transform="translate(-87.261 -7.071)" fill="#adafe5"/>
      <path id="Trazado_61089" data-name="Trazado 61089" d="M243.933,117.336a47.762,47.762,0,0,1-9.987,29.589c-7.918,10.243-18.51,15.92-31.553,17.785a64.513,64.513,0,0,1,11.867-25.586c7.7-10.1,17.321-17.606,29.673-21.789" transform="translate(-109.123 -63.264)" fill="#adafe5"/>
      <path id="Trazado_61090" data-name="Trazado 61090" d="M88.706,117.362a58.335,58.335,0,0,1,22.624,13.843c10.2,9.785,16.7,22.675,18.889,33.484-11.168-1.511-20.762-6.024-28.456-14.219-8.658-9.22-12.757-20.308-13.058-33.109" transform="translate(-47.827 -63.278)" fill="#adafe5"/>
    </g>
  </g>
</svg>
