<svg id="Logo_kubo_footer" data-name="Logo kubo footer" xmlns="http://www.w3.org/2000/svg" width="231.2" height="83.438" viewBox="0 0 231.2 83.438">
  <path id="Trazado_315" data-name="Trazado 315" d="M586.638,2010.766v-19.188h-15.88v34.5A37.073,37.073,0,0,1,586.638,2010.766Z" transform="translate(-453.214 -1991.578)" fill="#fff"/>
  <path id="Trazado_316" data-name="Trazado 316" d="M482.888,2074.881h15.88v-83.3h-15.88Z" transform="translate(-482.888 -1991.578)" fill="#fff"/>
  <path id="Trazado_317" data-name="Trazado 317" d="M528.668,2016.717a31.666,31.666,0,0,0,9.4-22.511,25.257,25.257,0,0,0-.138-2.629h-14.49a16.866,16.866,0,0,1,.231,2.629,17.486,17.486,0,0,1-13.288,16.976H498.946v14.344h11.713a17.554,17.554,0,0,1,17.592,17.53v31.823h14.4v-31.823A31.886,31.886,0,0,0,528.668,2016.717Z" transform="translate(-477.465 -1991.578)" fill="#fff"/>
  <path id="Trazado_318" data-name="Trazado 318" d="M684.056,2035.13c0-.184-.047-.37-.047-.509,0-.184-.045-.365-.045-.5l-.139-.972c-.047-.183-.047-.367-.093-.551-.047-.279-.093-.6-.139-.878-.093-.462-.184-.921-.323-1.383-.278-1.108-.65-2.213-1.019-3.274a1.637,1.637,0,0,0-.185-.415c-.139-.323-.231-.646-.371-.921-.047-.139-.139-.278-.185-.418-.186-.459-.416-.875-.648-1.336-.139-.231-.232-.462-.371-.694-.092-.183-.23-.415-.323-.6a6.49,6.49,0,0,1-.324-.6c-.187-.323-.418-.643-.6-1.013-.047-.092-.092-.139-.139-.228-.324-.51-.649-.972-1.018-1.479-.047-.044-.047-.091-.093-.139-.185-.229-.325-.415-.509-.647-.094-.136-.231-.275-.325-.415-.185-.229-.37-.415-.555-.646-.093-.136-.232-.231-.325-.367-.648-.693-1.3-1.384-1.989-2.03a13.187,13.187,0,0,0-1.2-1.061c-.092-.048-.139-.14-.232-.184-.278-.232-.51-.415-.786-.646a.669.669,0,0,0-.187-.139c-.278-.231-.6-.463-.925-.693-.047,0-.047-.048-.093-.048-.463-.32-.972-.69-1.435-.966l-.047-.045c-.833-.507-1.667-1.016-2.545-1.478h-.047c-.371-.181-.787-.415-1.158-.552-.51-.231-1.018-.462-1.527-.649a.162.162,0,0,1-.093-.041,12.881,12.881,0,0,0-1.435-.51c-.047-.048-.139-.048-.186-.092-.463-.139-.879-.278-1.341-.418-.093-.044-.186-.044-.324-.092a11.2,11.2,0,0,0-1.3-.32c-.138-.048-.278-.048-.369-.092a11.579,11.579,0,0,0-1.251-.234c-.139-.044-.324-.044-.463-.092-.416-.044-.787-.136-1.2-.183-.184,0-.323-.047-.508-.047a11.884,11.884,0,0,0-1.25-.093c-.139,0-.323-.044-.462-.044-.556-.049-1.158-.049-1.714-.049-.509,0-1.019,0-1.528.049-.185,0-.37.044-.556.044-.323,0-.648.048-.973.048a3.535,3.535,0,0,0-.694.091c-.277.047-.555.047-.786.092s-.51.091-.741.139l-.7.139a3.808,3.808,0,0,0-.786.183c-.186.048-.418.093-.6.14a5.461,5.461,0,0,0-.834.227l-.555.14c-.279.092-.6.184-.88.276-.139.046-.324.094-.464.138-.323.1-.6.232-.925.324l-.417.139c-.324.136-.648.23-.971.368-.094.046-.232.091-.325.138a9.567,9.567,0,0,0-.971.462l-.279.14c-.324.18-.694.323-1.019.5a.348.348,0,0,1-.186.1,11.426,11.426,0,0,0-1.064.6c-.047.045-.093.045-.14.092-.37.228-.74.459-1.065.69l-.045.045a30.771,30.771,0,0,0-4.12,3.23,36.7,36.7,0,0,1,7.129,13.467,17.983,17.983,0,0,1,2.778-3.135l.045.048a17.43,17.43,0,0,1,7.64-4.014c.184-.045.416-.093.6-.137.046,0,.139-.047.185-.047h.091c.279-.048.6-.092.926-.139h.095a.41.41,0,0,0,.23-.047,4.159,4.159,0,0,1,.74-.042h.325c.324,0,.693-.047,1.018-.047h.925a17.514,17.514,0,0,1-.925,35.008,14.473,14.473,0,0,1-2.037-.139,1.361,1.361,0,0,1-.371-.187,17.556,17.556,0,0,1-14.953-16.142c0-.228-.186-1.013-.186-1.061v-.044c0-1.108-.23-3.923-.23-3.923a31.991,31.991,0,0,0-63.749,3.736v.187a32,32,0,0,0,53.7,23.384l-.324-.415c-3.194-4.059-6.9-13.239-6.9-13.239a17.287,17.287,0,1,1,3.1-9.778v.554c.047,1.293.23,3.322.23,3.322a31.63,31.63,0,0,0,6.946,16.373l.046-.044a30.509,30.509,0,0,0,2.87,3.087c.047.049.047.049.092.049a33.262,33.262,0,0,0,3.149,2.58h.045c.37.279.788.557,1.157.786h.046c.047,0,.047.046.093.046.371.229.741.463,1.157.691a.046.046,0,0,1,.047.047c.047.048.092.048.139.092.371.231.741.415,1.11.6a.046.046,0,0,1,.047.048c.092.045.139.093.23.093a11.234,11.234,0,0,0,1.066.506.046.046,0,0,1,.046.048l.277.136c.325.139.694.323,1.019.462a.046.046,0,0,1,.046.048c.139.044.231.092.37.136a8.288,8.288,0,0,0,.973.37h.046l.416.139c.325.092.649.231.973.32h.046c.186.048.325.095.51.14a5.609,5.609,0,0,0,.926.231h.046c.185.047.415.092.6.139.277.047.556.135.833.184h.046l.7.139c.277.047.556.092.787.139h.046a5.373,5.373,0,0,0,.833.091c.232.045.464.045.694.092h.046c.325.047.65.047.973.092.185,0,.416.044.6.044.508.048,1.065.048,1.62.048a31.937,31.937,0,0,0,31.99-31.87C684.194,2037.112,684.148,2036.1,684.056,2035.13Z" transform="translate(-453.179 -1986.653)" fill="#fff"/>
  <path id="Trazado_319" data-name="Trazado 319" d="M580.055,2044.572c-.139.186-.232.37-.371.554a17.355,17.355,0,0,1-29.675-3.275,10.278,10.278,0,0,1-.695-2.583V2016.3H534.454v24.906c.047.093,1.528,4.889,1.528,4.889a31.92,31.92,0,0,0,12.13,15.174c.093.047.138.095.231.142.045,0,.045.045.092.045a5.527,5.527,0,0,0,.508.323c.6.367,1.159.691,1.761,1.014.277.14.507.275.786.414a4.042,4.042,0,0,0,.787.371,5.263,5.263,0,0,0,.881.37l.973.412c.786.326,1.619.6,2.5.88.325.091.6.18.927.276a6.51,6.51,0,0,0,1.018.228c.324.1.694.14,1.018.231a2.291,2.291,0,0,0,.6.093c.509.094,1.064.187,1.621.234.232.045.463.045.694.092a13.81,13.81,0,0,0,1.944.136h2.453a5.309,5.309,0,0,0,.833-.044,2.556,2.556,0,0,0,.6-.048c.232,0,.464-.044.695-.044.279-.048.51-.048.788-.092s.507-.047.786-.095l.833-.139a22.727,22.727,0,0,0,2.548-.551,4.679,4.679,0,0,0,.739-.232c.047,0,.047,0,.093-.044a3.913,3.913,0,0,0,.7-.235l1.249-.414c.416-.136.833-.324,1.2-.462a10.259,10.259,0,0,0,1.065-.459c.416-.184.786-.368,1.157-.554s.786-.416,1.157-.6c.278-.184.6-.322.88-.509.232-.136.415-.276.647-.412a11.328,11.328,0,0,0,.972-.647,2.694,2.694,0,0,0,.417-.323,5.3,5.3,0,0,0,.6-.462,2.457,2.457,0,0,0,.418-.323c.139-.092.278-.232.416-.324.279-.227.6-.462.881-.738a1.935,1.935,0,0,1,.323-.275,1.213,1.213,0,0,1,.278-.231l.046-.047A37.573,37.573,0,0,1,580.055,2044.572Z" transform="translate(-465.474 -1983.229)" fill="#fff"/>
</svg>
