<svg id="Sura" xmlns="http://www.w3.org/2000/svg" xmlns:xlink="http://www.w3.org/1999/xlink" width="221.986" height="89.248" viewBox="0 0 221.986 89.248">
  <defs>
    <clipPath id="clip-path">
      <rect id="Rectángulo_521" data-name="Rectángulo 521" width="221.986" height="89.248" transform="translate(0 0)" fill="#adafe5"/>
    </clipPath>
  </defs>
  <g id="Grupo_44703" data-name="Grupo 44703" clip-path="url(#clip-path)">
    <path id="Trazado_61112" data-name="Trazado 61112" d="M1287.04,381.673a2.1,2.1,0,0,1-.168.351,13.817,13.817,0,0,1-9.089,5.6,19.082,19.082,0,0,1-10.257-.838,16.41,16.41,0,0,1-8.712-7.814,21.281,21.281,0,0,1-2.433-7.77,39.71,39.71,0,0,1-.333-5.3,24.967,24.967,0,0,1,3.525-13.177,18.774,18.774,0,0,1,13.1-8.862,24.882,24.882,0,0,1,4.389-.283c5.839-.022,11.677-.028,17.516-.054.394,0,.527.1.527.509q-.015,21.306-.008,42.612c0,.251.04.519-.358.486a15.681,15.681,0,0,1-3.99-.607,4.955,4.955,0,0,1-3.185-3.552c-.115-.4-.217-.8-.324-1.194l-.2-.1m-.279-20.923h-.061c0-3.187-.01-6.373.011-9.56,0-.482-.219-.558-.6-.557-2.33,0-4.661-.022-6.99,0-1.424.015-2.854.034-4.269.172a9.881,9.881,0,0,0-6.817,3.656c-2.179,2.606-2.981,5.743-3.324,9.019-.142,1.355-.089,2.731-.1,4.1a17.809,17.809,0,0,0,.971,5.9,9.955,9.955,0,0,0,5.406,6.4,11.827,11.827,0,0,0,6.775.867,9.9,9.9,0,0,0,7.938-6.143,12.973,12.973,0,0,0,1.066-5.257c.009-2.867,0-5.735,0-8.6" transform="translate(-1146.23 -313.49)" fill="#adafe5"/>
    <path id="Trazado_61113" data-name="Trazado 61113" d="M464.961,359.98q0-7.992-.01-15.983c0-.444.118-.624.562-.549a21.775,21.775,0,0,1,2.949.514,5.641,5.641,0,0,1,3.933,4.691,11.708,11.708,0,0,1,.18,2.122q.073,9.8.119,19.606c.008,1.251.022,2.5.068,3.754a5.436,5.436,0,0,0,2.939,4.826,11.188,11.188,0,0,0,6.5,1.189,9.6,9.6,0,0,0,4.31-1.255,5.523,5.523,0,0,0,2.925-4.969q.02-14.933.077-29.866c0-.613,0-.63.62-.608a9.854,9.854,0,0,1,3.327.607,5.268,5.268,0,0,1,3.153,3.349,9.305,9.305,0,0,1,.531,2.987c.019,8.777.087,17.554.043,26.331a8.49,8.49,0,0,1-1.87,4.946,13.294,13.294,0,0,1-6.3,4.5,22.906,22.906,0,0,1-6.81,1.351,23.359,23.359,0,0,1-8.9-1.086,12.384,12.384,0,0,1-7.092-5.545,8.293,8.293,0,0,1-1.173-4.019c-.051-3.39-.064-6.78-.081-10.171-.011-2.242,0-4.483,0-6.725" transform="translate(-424.301 -313.406)" fill="#adafe5"/>
    <path id="Trazado_61114" data-name="Trazado 61114" d="M10.523,387.114c-2.854,0-5.709-.007-8.563.008-.4,0-.559-.084-.553-.524q.037-3.034.007-6.069c0-.4.122-.52.523-.522q6.006-.028,12.012-.092c1.6-.019,3.2-.06,4.8-.169a6.641,6.641,0,0,0,3.719-1.342,4.936,4.936,0,0,0-.1-7.47,9.137,9.137,0,0,0-3.479-1.543c-3.113-.837-6.237-1.636-9.326-2.552a14.808,14.808,0,0,1-7-4.17A9.281,9.281,0,0,1,.1,357.2a12.836,12.836,0,0,1,.567-5.93,10.767,10.767,0,0,1,5.054-5.63,15.285,15.285,0,0,1,6.777-1.93c3.27-.146,6.546-.154,9.82-.187,2.665-.028,5.33,0,8-.016.42,0,.52.135.5.526a6.334,6.334,0,0,1-2.533,5.3,6.844,6.844,0,0,1-3.751,1.27c-2.24.073-4.482.085-6.723.121-1.368.022-2.737.029-4.1.067a7.2,7.2,0,0,0-3.037.675,4.027,4.027,0,0,0-2.312,3.592,4.19,4.19,0,0,0,2.665,4.508,39.625,39.625,0,0,0,4.254,1.4c3.012.874,6.05,1.663,9.054,2.564a11.8,11.8,0,0,1,6.08,3.893,9.067,9.067,0,0,1,1.832,4.463,15.016,15.016,0,0,1-.255,6.691,10.676,10.676,0,0,1-4.748,6.041,15.443,15.443,0,0,1-7.376,2.306c-3.108.167-6.225.179-9.338.258,0-.023,0-.046,0-.069" transform="translate(0 -313.472)" fill="#adafe5"/>
    <path id="Trazado_61115" data-name="Trazado 61115" d="M951.636,373.2c0-4.105-.006-8.21,0-12.315a32.018,32.018,0,0,1,.1-3.446c.753-6.788,4.283-11.855,11.5-13.422a22.769,22.769,0,0,1,4.727-.387c3.335-.02,6.67-.029,10-.049.273,0,.474.035.422.373a21.738,21.738,0,0,1-.5,2.994,5.109,5.109,0,0,1-4.177,3.539,15.252,15.252,0,0,1-2.375.267c-1.641.088-3.3.028-4.925.217a7.638,7.638,0,0,0-6.725,5.866,13.6,13.6,0,0,0-.31,3.637c-.042,5.255-.032,10.51-.037,15.765,0,3.479-.008,6.958.006,10.437,0,.4-.109.521-.515.517q-3.342-.028-6.685,0c-.424,0-.54-.124-.539-.542.014-4.484.008-8.967.008-13.451Z" transform="translate(-868.411 -313.538)" fill="#adafe5"/>
    <path id="Trazado_61116" data-name="Trazado 61116" d="M222.864,21.033c-1.026,0-1.912-.04-2.793.014a1.018,1.018,0,0,1-1.129-.682c-1.115-2.287-2.288-4.545-3.42-6.824a.749.749,0,0,0-.8-.486c-.958.032-1.917.01-2.927.01-.021.322-.054.606-.056.891-.014,2.183-.034,4.366-.023,6.55,0,.429-.135.555-.549.534-.61-.031-1.223-.007-1.835-.008-.57,0-.572,0-.572-.592q0-3.013,0-6.026,0-5.96,0-11.921c0-.62,0-.62.626-.62,2.1,0,4.195-.022,6.291.011a7.621,7.621,0,0,1,3.579.6A5.126,5.126,0,0,1,222.2,7.037a5.438,5.438,0,0,1-1.1,3.886,5.717,5.717,0,0,1-2.113,1.506c-.13.06-.265.111-.474.2l4.356,8.406M211.721,7.358h.054c0,.9,0,1.8,0,2.7,0,.283.12.38.4.378,1.453-.01,2.909.042,4.359-.026a2.835,2.835,0,0,0,2.71-2.831,2.949,2.949,0,0,0-2.7-2.965c-1.393-.08-2.792-.069-4.189-.077-.551,0-.612.071-.624.637-.015.727,0,1.455,0,2.182" transform="translate(-190.506 -1.703)" fill="#adafe5"/>
    <path id="Trazado_61117" data-name="Trazado 61117" d="M10.805,8.982H13.95c.191,0,.407-.022.395.268a48.145,48.145,0,0,1-.243,5,5.792,5.792,0,0,1-4.3,4.861,7.218,7.218,0,0,1-8.2-2.23A5.189,5.189,0,0,1,.445,13.747C.377,11.422.343,9.094.363,6.768.392,3.291,2.186,1,5.384.263c2.586-.6,5.114-.275,7.094,1.816a7.292,7.292,0,0,1,1.764,3.5c.066.289-.048.4-.339.393-.786-.015-1.572-.028-2.358-.015-.327.006-.37-.214-.447-.432A3.946,3.946,0,0,0,9.117,3.141,3.832,3.832,0,0,0,3.452,6.348c-.113,2.289-.1,4.592,0,6.883A3.783,3.783,0,0,0,7.4,16.847a3.982,3.982,0,0,0,3.878-3.8c.019-.333.058-.665.074-1,.018-.356-.136-.525-.519-.525-1.033,0-2.066-.046-3.1-.04-.387,0-.515-.125-.493-.505a13.078,13.078,0,0,0,0-1.483c-.022-.389.087-.539.506-.527,1.018.03,2.038.01,3.057.01" transform="translate(-0.326 0.004)" fill="#adafe5"/>
    <path id="Trazado_61118" data-name="Trazado 61118" d="M807.639,9.919c0-1.323-.081-2.652.018-3.967A5.846,5.846,0,0,1,811.238.859a7.362,7.362,0,0,1,9.054,2.132,5.278,5.278,0,0,1,.992,2.973q.076,3.381.078,6.764a9.86,9.86,0,0,1-.211,1.942,5.8,5.8,0,0,1-4.1,4.533,7.088,7.088,0,0,1-7.744-1.623,5.53,5.53,0,0,1-1.672-3.911c-.029-1.249-.006-2.5-.006-3.75h.008m2.824-.012c.084,1.286.074,2.617.278,3.915a3.556,3.556,0,0,0,3.632,3.14,3.74,3.74,0,0,0,3.923-3.711c.057-1.83.075-3.661.077-5.492a10.014,10.014,0,0,0-.173-1.773,3.729,3.729,0,0,0-3.74-3.137,3.615,3.615,0,0,0-3.727,3.113c-.191,1.286-.186,2.6-.271,3.944" transform="translate(-737 -0.131)" fill="#adafe5"/>
    <path id="Trazado_61119" data-name="Trazado 61119" d="M421.737,7.854c0,2.43.011,4.86,0,7.29a5.722,5.722,0,0,1-2.779,4.905,6.275,6.275,0,0,1-3.623,1.088,13.621,13.621,0,0,1-2.595-.223,6.253,6.253,0,0,1-4.767-6.07c.048-4.147,0-8.3,0-12.444,0-.576,0-.576.572-.577.612,0,1.225.027,1.834-.009.438-.026.573.142.528.549a5.235,5.235,0,0,0,0,.611q.036,5.7.076,11.395a5.177,5.177,0,0,0,.4,1.986,3.888,3.888,0,0,0,3.915,2.132,3.711,3.711,0,0,0,3.36-2.8,6.369,6.369,0,0,0,.147-1.6c.016-3.9.016-7.8.021-11.7,0-.565,0-.565.58-.566.655,0,1.311.017,1.966-.007.349-.013.451.1.448.449-.014,1.863-.007,3.726-.007,5.589h-.073" transform="translate(-372.303 -1.652)" fill="#adafe5"/>
    <path id="Trazado_61120" data-name="Trazado 61120" d="M619.916,11.44c0-3.027.007-6.053-.009-9.08,0-.407.118-.518.519-.512,2.562.036,5.124.035,7.685.072a5.469,5.469,0,0,1,5.176,4.342,5.859,5.859,0,0,1-1.766,5.844,5.725,5.725,0,0,1-3.857,1.377c-1.4.015-2.8.029-4.193.021-.421,0-.58.121-.575.574.022,2.153,0,4.307.014,6.46,0,.351-.088.5-.462.483-.683-.024-1.369-.028-2.052,0-.395.017-.489-.13-.487-.5.013-3.026.007-6.053.007-9.08m5.317-.6,0,.041a23.045,23.045,0,0,0,2.739-.166,2.911,2.911,0,0,0,2.413-3.478,2.989,2.989,0,0,0-3.027-2.66c-.362-.028-.726-.031-1.09-.035q-1.44-.017-2.88-.022c-.318,0-.5.107-.493.487.018,1.76.014,3.52,0,5.279,0,.39.155.561.541.556.6-.008,1.193,0,1.79,0" transform="translate(-565.71 -1.686)" fill="#adafe5"/>
    <path id="Trazado_61121" data-name="Trazado 61121" d="M1990.437,171.192l-38.765-18.418a6.956,6.956,0,0,1-3.942-5.651l-.195-2.138a.4.4,0,0,1,.612-.381l42.918,26.211a.131.131,0,0,1,.043.183.526.526,0,0,1-.67.194" transform="translate(-1777.264 -131.906)" fill="#adafe5"/>
    <path id="Trazado_61122" data-name="Trazado 61122" d="M1978.5,300.233l-43.457-11.717a7.469,7.469,0,0,1-5.21-4.942l-.646-2.088a.4.4,0,0,1,.546-.482l49.33,18.749a.135.135,0,0,1,.082.174.536.536,0,0,1-.644.306" transform="translate(-1760.502 -256.408)" fill="#adafe5"/>
    <path id="Trazado_61123" data-name="Trazado 61123" d="M2014.7,434.52l-42.919-3.465a6.989,6.989,0,0,1-5.714-3.885l-.946-1.93a.4.4,0,0,1,.438-.574l49.6,9.279a.132.132,0,0,1,.105.155.526.526,0,0,1-.559.42" transform="translate(-1793.278 -387.531)" fill="#adafe5"/>
    <path id="Trazado_61124" data-name="Trazado 61124" d="M2121.56,556.977l-32.148,4.581a4.754,4.754,0,0,1-4.734-2.754l-.955-1.72c-.147-.266,0-.644.247-.645l37.848-.111c.055,0,.1.06.1.133a.5.5,0,0,1-.357.516" transform="translate(-1901.493 -507.688)" fill="#adafe5"/>
    <path id="Trazado_61125" data-name="Trazado 61125" d="M2211.153,599.086,2189.13,608.4a3.5,3.5,0,0,1-3.889-1.069l-1-1.044c-.155-.161-.123-.458.054-.506l26.922-7.207c.04-.011.082.024.1.076a.366.366,0,0,1-.157.435" transform="translate(-1993.184 -546.241)" fill="#adafe5"/>
    <path id="Trazado_61126" data-name="Trazado 61126" d="M2260.416,643.715l-17.08,13.679a1.33,1.33,0,0,1-2.154-.891l-.166-1.495a.779.779,0,0,1,.381-.758l18.992-11.123a.147.147,0,0,1,.219.106.525.525,0,0,1-.192.482" transform="translate(-2045.084 -586.881)" fill="#adafe5"/>
    <path id="Trazado_61127" data-name="Trazado 61127" d="M2246.909,764.385,2234,778.273a.247.247,0,0,1-.421-.222l.744-3.287a2.84,2.84,0,0,1,.974-1.573l11.363-9.281a.208.208,0,0,1,.326.088.375.375,0,0,1-.076.387" transform="translate(-2038.296 -697.079)" fill="#adafe5"/>
    <path id="Trazado_61128" data-name="Trazado 61128" d="M1856.523,848.686c-7.729,3.324-16.176,4.413-24.505,4.948-2.407.155-4.817.266-7.226.376l-.008,0-.017,0c-.086.009-.172.031-.259.044l-.027.009-.041.014h0l-.017.008-.065.034a.477.477,0,0,0-.107.159.567.567,0,0,0,.056.411c.022.054.044.109.066.163a4.036,4.036,0,0,0,.324.477l.006.005a.078.078,0,0,1,.026.035,6.542,6.542,0,0,0,4.612,1.987,31.66,31.66,0,0,0,7.03-.225,49.487,49.487,0,0,0,13.45-4.042c2.428-1.081,4.795-2.3,7.13-3.564a.394.394,0,0,0,.2-.242c.175-.3-.2-.783-.626-.6" transform="translate(-1664.738 -774.45)" fill="#adafe5"/>
    <path id="Trazado_61129" data-name="Trazado 61129" d="M1938.535,890.839c-5.68,3.523-12.189,5.376-18.67,6.779-1.873.406-3.753.777-5.634,1.147h-.006l-.013,0c-.066.017-.131.045-.2.065l-.02.01-.03.016,0,0-.013.009-.047.035a.383.383,0,0,0-.066.137.452.452,0,0,0,.093.316c.024.04.047.08.071.12a3.225,3.225,0,0,0,.311.336l.006,0a.06.06,0,0,1,.025.025,5.2,5.2,0,0,0,3.858,1.017,25.149,25.149,0,0,0,5.5-1.006,39.317,39.317,0,0,0,10.091-4.762c1.781-1.136,3.5-2.369,5.182-3.641a.312.312,0,0,0,.13-.214.375.375,0,0,0-.563-.4" transform="translate(-1746.508 -812.902)" fill="#adafe5"/>
    <path id="Trazado_61130" data-name="Trazado 61130" d="M2075.113,934.725a.391.391,0,0,0-.18-.066.382.382,0,0,0-.4.117,22.158,22.158,0,0,1-10.3,6.18c-.07.027-.142.05-.213.072a1.857,1.857,0,0,0-.276.1.434.434,0,0,0,.174.736,9.3,9.3,0,0,0,11.406-6.492c0-.03,0-.06,0-.089s0-.03,0-.045a.577.577,0,0,0-.215-.512" transform="translate(-1883.192 -852.927)" fill="#adafe5"/>
  </g>
</svg>
