<svg xmlns="http://www.w3.org/2000/svg" width="21.834" height="20.857" viewBox="0 0 21.834 20.857">
  <path id="Trazado_60854" data-name="Trazado 60854" d="M369.008,207.891c-.057.077-.1.153-.153.23a7.167,7.167,0,0,1-12.277-1.36,4.267,4.267,0,0,1-.287-1.073V196.15h-6.148v10.343c.019.038.632,2.03.632,2.03a13.25,13.25,0,0,0,5.018,6.3c.038.019.058.038.1.058.019,0,.019.019.038.019a2.017,2.017,0,0,0,.211.134c.249.153.479.287.728.421.115.057.211.115.326.172a1.689,1.689,0,0,0,.326.153,2.08,2.08,0,0,0,.364.153l.4.172c.326.134.67.249,1.034.364.134.038.249.077.383.115a2.718,2.718,0,0,0,.421.1c.134.038.287.057.421.1a.972.972,0,0,0,.249.038c.211.038.44.077.67.1.1.019.192.019.287.038a5.684,5.684,0,0,0,.8.057h1.015a2.085,2.085,0,0,0,.345-.019,1.089,1.089,0,0,0,.249-.019c.1,0,.192-.019.287-.019.115-.019.211-.019.326-.038s.211-.019.326-.038l.345-.057a9.345,9.345,0,0,0,1.053-.23,1.876,1.876,0,0,0,.306-.1c.019,0,.019,0,.038-.019a1.677,1.677,0,0,0,.287-.1l.517-.172c.172-.057.345-.134.5-.192a4.372,4.372,0,0,0,.441-.192c.172-.077.326-.153.479-.23s.326-.172.479-.249c.115-.077.249-.134.364-.211.1-.057.172-.115.268-.172.134-.077.268-.172.4-.268a1.047,1.047,0,0,0,.172-.134,2.168,2.168,0,0,0,.249-.191,1.044,1.044,0,0,0,.172-.134c.058-.038.115-.1.172-.134.115-.1.249-.191.364-.306a.832.832,0,0,1,.134-.115.506.506,0,0,1,.115-.1l.019-.019A15.611,15.611,0,0,1,369.008,207.891Z" transform="translate(-350.143 -196.15)" fill="#fff"/>
</svg>
